# xmcd
#
# Track frame offsets: 
#        150
#        18067
#        27784
#        52430
#        63395
#        84541
#        96370
#        109080
#
# Disc length: 1664 seconds
#
# Revision: 2
# Processed by: cddbd v1.5.2PL0 Copyright (c) Steve Scherf et al.
# Submitted via: ExactAudioCopy v0.95a4
#
DISCID=63067e08
DTITLE=Kris Kristofferson - Closer to the Bone [Deluxe Edition - Disc 
DTITLE=2]
DYEAR=2009
DGENRE=Country
TTITLE0=This Old Road
TTITLE1=The Final Attraction
TTITLE2=Sunday Mornin' Comin' Down
TTITLE3=The Silver Tongued Devil and I
TTITLE4=For the Good Times
TTITLE5=A Moment of Forever
TTITLE6=Don't Let the Bastards (Get You Down)
TTITLE7=Why Me
EXTD=Live at The Olympia Theater, Dublin, Ireland, March 21st, 2008.\n
EXTD=\nX...U...
EXTT0=
EXTT1=
EXTT2=
EXTT3=
EXTT4=
EXTT5=
EXTT6=
EXTT7=
PLAYORDER=
